<svg xmlns="http://www.w3.org/2000/svg" width="212" height="18" viewBox="0 0 212 18">
    <g fill="#FFF" fill-rule="nonzero">
        <path d="M31.533 3.112L25.015 17.38h3l1.489-3.339h6.59l1.47 3.339h3.08L34.127 3.112h-2.594zm-.942 8.431l2.211-4.912 2.224 4.912H30.59zM53.59 12.432L46.117 3.21h-2.625v14.168h2.861v-9.5l7.703 9.5h2.4V3.21h-2.868zM60.016 5.812h4.586V17.38h2.922V5.812h4.586V3.211H60.016zM78.677 11.497h7.247v-2.52h-7.247V5.73h8.182v-2.52H75.773v14.168h11.19v-2.52h-8.286zM96.627 3.211h-5.57v14.168h5.57c4.562 0 7.897-2.979 7.897-7.125s-3.335-7.043-7.897-7.043zm0 11.613H93.96V5.772h2.667a4.708 4.708 0 0 1 3.492 1.248 4.283 4.283 0 0 1 1.368 3.315c-.043 2.683-1.962 4.483-4.86 4.483v.006zM111.248 3.211h-2.903v14.168h10.503v-2.56h-7.6zM125.42 9.163l-3.93-5.952h-3.45l5.898 8.594v5.574h2.922v-5.633l5.898-8.535h-3.347zM23.678.122l-5.88 13.72-2.587-6.003L18.697.122h-3.25l-1.773 4.146L11.888.122H8.559L12.1 7.937l-2.533 5.906L3.657.122H.328l7.824 17.257h2.752l2.733-6.05 2.74 6.05h2.752l7.8-17.257zM152.591 17.24l-1.822-3.885h-8.358l-1.823 3.884h-1.792l6.992-14.824h1.634l7.022 14.824h-1.853zm-9.494-5.406h7.004l-3.493-7.473-3.511 7.473zM161.934 17.472c-2.636 0-5.437-1.98-5.437-5.638 0-3.659 2.8-5.697 5.437-5.697 1.71-.011 3.31.803 4.252 2.166l.116.145V1.893h1.688v15.346h-1.688v-2.183l-.116.145c-.908 1.412-2.518 2.272-4.252 2.27zm.304-9.871c-2.357 0-4.003 1.742-4.003 4.18 0 2.439 1.725 4.25 4.003 4.25a4.34 4.34 0 0 0 2.968-1.286 3.963 3.963 0 0 0 1.144-2.917 3.961 3.961 0 0 0-1.13-2.94 4.34 4.34 0 0 0-2.982-1.299v.012zM188.31 17.24v-6.353c0-2.084-1.076-3.28-2.947-3.28-1.87 0-3.128 1.352-3.128 3.367v6.265h-1.695v-6.387c0-2.026-1.093-3.24-2.928-3.24-1.834 0-3.165 1.446-3.165 3.432v6.195h-1.694V6.387h1.694V8.21l.11-.15c.749-1.197 2.107-1.923 3.566-1.905 1.524-.048 2.936.767 3.602 2.079l.048.087.055-.082c.828-1.323 2.336-2.119 3.948-2.084 2.6 0 4.222 1.678 4.222 4.372v6.712h-1.689zM194.815 17.24V6.386h1.695V17.24h-1.695zm-.11-13.245V2.206h1.933v1.789h-1.932zM209.904 17.24v-6.353c0-2.05-1.178-3.28-3.146-3.28s-3.408 1.405-3.408 3.408v6.224h-1.677V6.387h1.695v1.887l.11-.162c.803-1.254 2.247-2 3.784-1.957 2.642 0 4.35 1.707 4.35 4.355v6.73h-1.708z"/>
    </g>
</svg>
