<svg xmlns="http://www.w3.org/2000/svg" width="32" height="32" viewBox="0 0 32 32">
    <g fill="none" fill-rule="evenodd">
        <circle cx="16" cy="16" r="16" fill="#000" fill-opacity=".4"/>
        <path fill="#FFF" fill-rule="nonzero" d="M12.163 18.535c-.727.186-1.39.424-1.96.706-.64.315-1.118.664-1.405 1-.19.221-.254.375-.254.48 0 .106.063.26.254.481.287.335.765.685 1.404 1 1.474.727 3.553 1.161 5.798 1.161s4.324-.434 5.798-1.16c.639-.316 1.117-.666 1.404-1 .19-.223.254-.376.254-.482 0-.105-.063-.259-.254-.48-.287-.336-.765-.685-1.404-1a10.095 10.095 0 0 0-1.96-.706l1.562-1.563c2.373.834 3.92 2.203 3.92 3.75 0 2.54-4.172 4.598-9.32 4.598-5.148 0-9.32-2.059-9.32-4.599 0-1.547 1.547-2.915 3.92-3.749l1.563 1.563zm4.776-2.476l2.137-2.243 1.318 1.384-3.728 3.914-.66.692-.658-.692-3.729-3.914 1.319-1.384 2.137 2.243V6.68h1.864v9.38z"/>
    </g>
</svg>
