<svg xmlns="http://www.w3.org/2000/svg" width="32" height="32" viewBox="0 0 32 32">
    <g fill="none" fill-rule="evenodd">
        <path fill="#000" fill-opacity=".4" d="M32 16c0 8.836-7.164 16-16 16S0 24.836 0 16 7.164 0 16 0s16 7.164 16 16"/>
        <g fill="#FFF">
            <path d="M23.564 20.895v-2.768l3.255-1.775c.193-.106.35-.012.35.208v5.902c0 .22-.157.314-.35.208l-3.255-1.775zM21.564 23.579H8.324a.4.4 0 0 1-.4-.4v-7.335a.4.4 0 0 1 .4-.4h13.24a.4.4 0 0 1 .4.4v7.335a.4.4 0 0 1-.4.4M21.964 10.707a3.1 3.1 0 1 1-6.2 0 3.1 3.1 0 0 1 6.2 0M14.125 10.707a3.1 3.1 0 1 1-6.2 0 3.1 3.1 0 0 1 6.2 0"/>
        </g>
    </g>
</svg>
