<svg xmlns="http://www.w3.org/2000/svg" width="32" height="32" viewBox="0 0 32 32">
    <g fill="none" fill-rule="evenodd">
        <path fill="#000" fill-opacity=".4" d="M32 16c0 8.836-7.164 16-16 16S0 24.836 0 16 7.164 0 16 0s16 7.164 16 16"/>
        <path stroke="#FFF" stroke-width="2.133" d="M25.606 16a9.606 9.606 0 1 1-19.212 0 9.606 9.606 0 0 1 19.212 0zM27.308 27.39l-4.95-4.991"/>
        <path fill="#FFF" d="M18.2 13.858a2.2 2.2 0 1 1-4.4 0 2.2 2.2 0 0 1 4.4 0M16.053 21.985a6.3 6.3 0 0 0 4.567-1.956.392.392 0 0 0 .007-.53c-1.094-1.197-2.758-1.964-4.627-1.964-1.838 0-3.478.743-4.572 1.906a.392.392 0 0 0 0 .531 6.306 6.306 0 0 0 4.625 2.013"/>
    </g>
</svg>
