<svg xmlns="http://www.w3.org/2000/svg" xmlns:xlink="http://www.w3.org/1999/xlink" width="32" height="32" viewBox="0 0 32 32">
    <defs>
        <path id="a" d="M0 0h31.909v31.918H0"/>
    </defs>
    <g fill="none" fill-rule="evenodd">
        <g>
            <mask id="b" fill="#fff">
                <use xlink:href="#a"/>
            </mask>
            <path fill="#000" fill-opacity=".4" d="M15.954.308C7.144.308 0 7.45 0 16.262c0 7.66 5.4 14.058 12.601 15.598v-7.03c0-.22.178-.398.4-.398h5.908c.22 0 .399.178.399.399v7.03c7.2-1.541 12.6-7.938 12.6-15.599 0-8.811-7.142-15.954-15.954-15.954" mask="url(#b)"/>
        </g>
        <path fill="#FFF" d="M16.416 16.678v-8.79l5.524 9.569c.11.19.11.5 0 .69l-2.42 4.19a.767.767 0 0 1-.598.346h-5.935a.767.767 0 0 1-.599-.345l-2.42-4.19a.766.766 0 0 1 0-.691l5.525-9.568v8.79a1.404 1.404 0 1 0 .923 0z"/>
    </g>
</svg>
