<svg xmlns="http://www.w3.org/2000/svg" xmlns:xlink="http://www.w3.org/1999/xlink" width="110" height="59" viewBox="0 0 110 59">
    <defs>
        <path id="a" d="M0 0h77v59H0z"/>
    </defs>
    <g fill="none" fill-rule="evenodd">
        <path fill="#A8E7F0" d="M54.468 40.028a.53.53 0 0 0-.441.236A14.57 14.57 0 0 1 44 44.25c-8.1 0-14.667-6.604-14.667-14.75S35.9 14.75 44 14.75a14.57 14.57 0 0 1 10.027 3.986.53.53 0 0 0 .973-.295V0H0v59h55V40.562a.533.533 0 0 0-.532-.534"/>
        <g transform="translate(33)">
            <mask id="b" fill="#fff">
                <use xlink:href="#a"/>
            </mask>
            <path fill="#21BDDB" d="M69.667 50.242H33v-6.856-.058c0-4.23 3.637-7.917 9.04-9.922 2.627 1.886 5.828 3.008 9.293 3.008 3.465 0 6.667-1.122 9.293-3.008 5.404 2.005 9.04 5.693 9.04 9.922v6.914zM51.333 8.758c6.328 0 11.459 5.16 11.459 11.523 0 6.364-5.131 11.524-11.459 11.524-6.327 0-11.458-5.16-11.458-11.524 0-6.363 5.131-11.523 11.458-11.523zM25.667 0v17.506h-.001c-.03 2.536-2.082 4.582-4.61 4.582a4.574 4.574 0 0 1-2.831-.977h-.055A10.92 10.92 0 0 0 11 18.438c-6.075 0-11 4.952-11 11.062 0 6.11 4.925 11.063 11 11.063 2.608 0 5.003-.914 6.889-2.44a4.581 4.581 0 0 1 3.167-1.266c2.546 0 4.61 2.076 4.61 4.637 0 .117-.004.234-.012.35h.013V59H77V0H25.667z" mask="url(#b)"/>
        </g>
    </g>
</svg>
